<svg xmlns="http://www.w3.org/2000/svg" viewBox="0 0 96 24" fill="none">
  <g stroke-linecap="round" stroke-linejoin="round">
    <path d="M0 12h29M67 12h29" stroke="#a78a58" stroke-width=".8" stroke-opacity=".78"/>
    <path d="M10 12 14 8l4 4-4 4-4-4ZM78 12l4-4 4 4-4 4-4-4Z" stroke="#3e5848" stroke-width=".8"/>
    <path d="M32 12h5M59 12h5" stroke="#c39a42" stroke-width="1"/>
    <g transform="translate(48 12)">
      <path d="M0-10 2.6-4.2 8.5-1.2 3.7 1.5 3.2 7.8 0 4.5-3.2 7.8-3.7 1.5-8.5-1.2-2.6-4.2Z" fill="#3e5848" fill-opacity=".13" stroke="#3e5848" stroke-width=".85"/>
      <path d="M0-5.7 1.6-1.7 5.7 0 1.6 1.7 0 5.7-1.6 1.7-5.7 0-1.6-1.7Z" fill="#c39a42" fill-opacity=".16" stroke="#a77d27" stroke-width=".75"/>
      <circle r="1.35" fill="#a77d27"/>
    </g>
    <g fill="#a77d27">
      <circle cx="3" cy="12" r="1.05"/><circle cx="93" cy="12" r="1.05"/>
    </g>
  </g>
</svg>
